<svg width="16" height="16" viewBox="0 0 16 16" fill="none" xmlns="http://www.w3.org/2000/svg">
<rect x="15.7496" y="2.25" width="13.5" height="15.4996" rx="1.75" transform="rotate(90 15.7496 2.25)" stroke="#38384B" stroke-width="0.5" stroke-miterlimit="10" stroke-linecap="round" stroke-linejoin="round"/>
<rect x="5.75034" y="0.25" width="4.5" height="2.49993" rx="1.24996" transform="rotate(90 5.75034 0.25)" stroke="#38384B" stroke-width="0.5" stroke-miterlimit="10" stroke-linecap="round" stroke-linejoin="round"/>
<rect x="8.99934" y="7" width="2" height="1.99995" transform="rotate(90 8.99934 7)" stroke="#38384B" stroke-width="0.5" stroke-miterlimit="10" stroke-linecap="round" stroke-linejoin="round"/>
<rect x="4.00026" y="11" width="2" height="1.99995" transform="rotate(90 4.00026 11)" stroke="#38384B" stroke-width="0.5" stroke-miterlimit="10" stroke-linecap="round" stroke-linejoin="round"/>
<rect x="13.9995" y="7" width="2" height="1.99995" transform="rotate(90 13.9995 7)" stroke="#38384B" stroke-width="0.5" stroke-miterlimit="10" stroke-linecap="round" stroke-linejoin="round"/>
<rect x="8.99934" y="11" width="2" height="1.99995" transform="rotate(90 8.99934 11)" stroke="#38384B" stroke-width="0.5" stroke-miterlimit="10" stroke-linecap="round" stroke-linejoin="round"/>
<rect x="13.9995" y="11" width="2" height="1.99995" transform="rotate(90 13.9995 11)" stroke="#38384B" stroke-width="0.5" stroke-miterlimit="10" stroke-linecap="round" stroke-linejoin="round"/>
<rect x="12.7497" y="0.25" width="4.5" height="2.49993" rx="1.24996" transform="rotate(90 12.7497 0.25)" stroke="#38384B" stroke-width="0.5" stroke-miterlimit="10" stroke-linecap="round" stroke-linejoin="round"/>
</svg>
