<svg width="142" height="20" viewBox="0 0 142 20" fill="none" xmlns="http://www.w3.org/2000/svg">
<path d="M40.6769 0.622314V5.12308H32.5617V7.53004H38.3392V12.0308H32.5617V14.4378H40.6769V18.9385H27.7783V0.622314H40.6769Z" fill="#093151"/>
<path d="M47.0455 0.622803L49.7325 11.9786L52.421 0.622803H57.257L52.9575 18.939H46.5616L42.208 0.622803H47.0455Z" fill="#093151"/>
<path d="M71.7696 0.622803V5.12357H63.6545V7.53053H69.432V12.0313H63.6545V14.4383H71.7696V18.939H58.8711V0.622803H71.7696Z" fill="#093151"/>
<path fill-rule="evenodd" clip-rule="evenodd" d="M83.5354 18.9382H88.1797L88.1694 6.85753C88.1694 3.53423 87.6287 0 81.5578 0C75.487 0 74.9463 3.53423 74.9463 6.85753V18.9382H79.592V15.0639H83.5354V18.9382ZM81.5658 4.95741C83.348 4.95741 83.5375 5.59165 83.5375 6.85726V10.4977H79.5941V6.85726C79.5941 5.59165 79.7836 4.95741 81.5658 4.95741Z" fill="#093151"/>
<path fill-rule="evenodd" clip-rule="evenodd" d="M104.332 6.80482C104.332 2.48424 102.651 0.475342 97.5731 0.475342H90.7412V18.9386H97.5731C102.657 18.9386 104.332 16.9082 104.332 12.5818V6.80482ZM99.5973 12.5999C99.5973 14.1827 98.9494 14.3936 97.6535 14.3936L95.3894 14.4008V5.01058H97.6535C98.9494 5.01058 99.5973 5.16842 99.5973 6.80424V12.5999Z" fill="#093151"/>
<path fill-rule="evenodd" clip-rule="evenodd" d="M115.212 18.9382H119.857L119.847 6.85753C119.847 3.53423 119.308 0 113.236 0C107.163 0 106.624 3.53423 106.624 6.85753V18.9382H111.27V15.0639H115.212V18.9382ZM113.241 4.95741C115.024 4.95741 115.212 5.59165 115.212 6.85726V10.4977H111.271V6.85726C111.271 5.59165 111.457 4.95741 113.241 4.95741Z" fill="#093151"/>
<path d="M129.525 0.475342L131.767 9.49531L134.009 0.475342H141.111V18.9386H136.466V6.59819L133.38 18.9386H130.147L127.061 6.59819V18.9386H122.423V0.475342H129.525Z" fill="#093151"/>
<path d="M18.4934 19.9797H16.3346V3.76013H7.903e-07V1.52526C-0.000408452 1.12088 0.158137 0.73292 0.440715 0.446833C0.723292 0.160746 1.10672 -2.11822e-07 1.50655 0H18.4934C18.8933 -2.11822e-07 19.2767 0.160746 19.5593 0.446833C19.8419 0.73292 20.0004 1.12088 20 1.52526V18.456C20.0004 18.8602 19.8418 19.248 19.5592 19.5339C19.2766 19.8197 18.8931 19.9801 18.4934 19.9797Z" fill="#35C6B4"/>
<path d="M14.842 20H1.50656C1.10672 20 0.723293 19.8393 0.440715 19.5532C0.158137 19.2671 -0.000408453 18.8791 7.903e-07 18.4747V5.41333H14.7155V14.5914H5.26292V10.8313H11.0455V9.17814H3.67001V16.2352H14.842V20Z" fill="#35C6B4"/>
</svg>
