<svg width="30" height="30" viewBox="0 0 30 30" fill="none" xmlns="http://www.w3.org/2000/svg">
<path d="M29.9932 15.3874C30.1481 12.1912 27.6493 8.78191 24.8017 5.70192C21.8767 2.69941 18.603 0.0262164 15.3874 0.00684541C12.1912 -0.148123 8.78191 2.35074 5.70192 5.19827C2.69941 8.14267 0.0262164 11.397 0.00684541 14.6126C-0.148123 17.8088 2.35074 21.2181 5.19827 24.2981C8.12329 27.3006 11.397 29.9932 14.5932 29.9932C17.7894 30.1481 21.1987 27.6493 24.2787 24.8017C27.3006 21.8767 29.9738 18.603 29.9932 15.3874Z" fill="#F9789B"/>
<path d="M15.1743 22.1278L13.9518 21.9211L13.9247 21.9121C13.3814 21.7234 12.8833 21.4088 12.4758 21.0133L12.4034 20.9414C11.7061 20.2134 11.3349 19.2518 11.3439 18.2541C11.353 17.2475 11.7605 16.3038 12.4668 15.5938L17.5739 10.5248C18.3165 9.85971 19.2673 9.5002 20.2724 9.52717C21.2685 9.55413 22.2102 9.94958 22.9166 10.6506C23.6229 11.3516 24.0213 12.2864 24.0485 13.275C24.0756 14.2636 23.7134 15.2163 23.0433 15.9533L23.0343 15.9623L17.9452 21.0133C17.5377 21.4178 17.0306 21.7323 16.4873 21.9211C16.0708 22.0649 15.6452 22.1368 15.2105 22.1368H15.1743V22.1278ZM14.1329 21.22L15.2286 21.3998C15.5727 21.3998 15.9168 21.3369 16.2428 21.229C16.6865 21.0762 17.094 20.8246 17.42 20.492L17.4834 20.4291L22.5091 15.45C23.0524 14.8568 23.3422 14.0839 23.324 13.284C23.3059 12.4751 22.9799 11.7201 22.4004 11.1539C21.8299 10.5877 21.0602 10.2641 20.2543 10.2462C19.4393 10.2282 18.6696 10.5158 18.072 11.0551L12.9829 16.0971C12.4034 16.6723 12.0774 17.4452 12.0683 18.2631C12.0593 19.081 12.3581 19.8539 12.9195 20.4471L12.9829 20.51C13.3089 20.8246 13.7073 21.0673 14.1329 21.22Z" fill="white"/>
<path d="M19.7472 18.2362C19.6567 18.2362 19.5661 18.2002 19.4937 18.1283L15.3464 14.012C15.2015 13.8682 15.2015 13.6435 15.3464 13.4997C15.4912 13.3559 15.7176 13.3559 15.8625 13.4997L20.0098 17.616C20.1547 17.7598 20.1547 17.9845 20.0098 18.1283C19.9283 18.2002 19.8378 18.2362 19.7472 18.2362Z" fill="white"/>
<path d="M10.8715 19.099C10.781 19.099 10.6904 19.063 10.618 18.9911L7.04117 15.441C6.3258 14.713 5.92737 13.7514 5.93643 12.7358C5.94548 11.7202 6.34391 10.7585 7.06834 10.0395C7.79276 9.32046 8.76167 8.925 9.78492 8.91602C9.79397 8.91602 9.80303 8.91602 9.80303 8.91602C10.8263 8.91602 11.7861 9.30248 12.5106 10.0125L14.8649 12.3223C15.0098 12.4661 15.0098 12.6908 14.8649 12.8346C14.72 12.9784 14.4937 12.9784 14.3488 12.8346L12.0035 10.5248C11.4149 9.94959 10.6361 9.63502 9.80303 9.63502C9.79397 9.63502 9.79397 9.63502 9.78492 9.63502C8.95183 9.63502 8.16402 9.96757 7.57543 10.5518C6.99589 11.136 6.6699 11.9089 6.66085 12.7358C6.65179 13.5626 6.97778 14.3445 7.55732 14.9377L11.1251 18.4788C11.27 18.6226 11.27 18.8473 11.1251 18.9911C11.0527 19.063 10.9621 19.099 10.8715 19.099Z" fill="white"/>
</svg>
